<svg xmlns="http://www.w3.org/2000/svg" xmlns:xlink="http://www.w3.org/1999/xlink" version="1.1" x="0px" y="0px" width="100px" height="100px" viewBox="0 0 100 100" enable-background="new 0 0 100 100" xml:space="preserve">
<circle fill="none" stroke="#ffffff" stroke-width="6" stroke-miterlimit="10" cx="50" cy="49.998" r="47"/>
<g stroke="white" fill="white"> 
<path d="M37.21,27.201C40.467,23.734,44.938,22,50.623,22c5.259,0,9.47,1.483,12.632,4.449C66.418,29.416,68,33.206,68,37.82    c0,2.795-0.573,5.062-1.721,6.803c-1.146,1.74-3.497,4.298-7.051,7.673c-2.585,2.452-4.268,4.528-5.048,6.229    c-0.78,1.7-1.17,4.212-1.17,7.534H45.97c0-3.771,0.448-6.809,1.346-9.116c0.896-2.308,2.891-4.95,5.983-7.93l3.228-3.125    c0.968-0.896,1.753-1.832,2.355-2.809c1.096-1.713,1.643-3.493,1.643-5.339c0-2.584-0.787-4.825-2.362-6.724    c-1.574-1.898-4.179-2.848-7.813-2.848c-4.496,0-7.604,1.635-9.328,4.904c-0.969,1.819-1.521,4.443-1.655,7.871h-7.04    C32.325,35.25,33.953,30.668,37.21,27.201z M45.812,72.625h7.871v8.227h-7.871V72.625z"/>
</g>
</svg>
